<mxfile host="65bd71144e">
    <diagram id="wXy_6ecup9hStS8oZJoM" name="第 1 页">
        <mxGraphModel dx="678" dy="562" grid="0" gridSize="10" guides="1" tooltips="1" connect="1" arrows="1" fold="1" page="1" pageScale="1" pageWidth="1654" pageHeight="2336" background="#ffffff" math="0" shadow="0">
            <root>
                <mxCell id="0"/>
                <mxCell id="1" parent="0"/>
                <mxCell id="2" value="" style="rounded=0;whiteSpace=wrap;html=1;fillColor=none;strokeColor=#000000;" vertex="1" parent="1">
                    <mxGeometry x="90" y="190" width="250" height="370" as="geometry"/>
                </mxCell>
                <mxCell id="3" value="" style="rounded=0;whiteSpace=wrap;html=1;fillColor=none;strokeColor=#000000;fontStyle=1" vertex="1" parent="1">
                    <mxGeometry x="380" y="190" width="306" height="370" as="geometry"/>
                </mxCell>
                <mxCell id="4" value="" style="rounded=0;whiteSpace=wrap;html=1;strokeColor=#000000;fillColor=none;" vertex="1" parent="1">
                    <mxGeometry x="100" y="420" width="210" height="120" as="geometry"/>
                </mxCell>
                <mxCell id="5" value="&lt;font color=&quot;#000000&quot;&gt;执行上下文栈（ECS）&lt;/font&gt;" style="text;html=1;align=center;verticalAlign=middle;resizable=0;points=[];autosize=1;strokeColor=none;fillColor=none;" vertex="1" parent="1">
                    <mxGeometry x="145" y="150" width="140" height="30" as="geometry"/>
                </mxCell>
                <mxCell id="6" value="GEC（Global execution context，全局执行上下文）" style="text;html=1;strokeColor=none;fillColor=none;align=center;verticalAlign=middle;whiteSpace=wrap;rounded=0;fontColor=#000000;" vertex="1" parent="1">
                    <mxGeometry x="100" y="380" width="210" height="30" as="geometry"/>
                </mxCell>
                <mxCell id="7" value="Global Object(window)" style="swimlane;strokeColor=#000000;fontColor=#000000;fillColor=none;" vertex="1" parent="1">
                    <mxGeometry x="400" y="210" width="200" height="200" as="geometry"/>
                </mxCell>
                <mxCell id="9" value="Math&lt;br&gt;Date&lt;br&gt;String&lt;br&gt;Number" style="text;html=1;strokeColor=none;fillColor=none;align=left;verticalAlign=top;whiteSpace=wrap;rounded=0;fontColor=#000000;" vertex="1" parent="1">
                    <mxGeometry x="408" y="237" width="133" height="165" as="geometry"/>
                </mxCell>
                <mxCell id="10" value="VO:GO&lt;br&gt;scope chain&lt;br&gt;this" style="rounded=0;whiteSpace=wrap;html=1;strokeColor=#000000;fontColor=#000000;fillColor=none;" vertex="1" parent="1">
                    <mxGeometry x="113" y="432" width="182" height="56" as="geometry"/>
                </mxCell>
            </root>
        </mxGraphModel>
    </diagram>
</mxfile>